<?xml version="1.0" encoding="UTF-8" standalone="no"?><!DOCTYPE svg PUBLIC "-//W3C//DTD SVG 1.1//EN" "http://www.w3.org/Graphics/SVG/1.1/DTD/svg11.dtd"><svg width="100%" height="100%" viewBox="0 0 2796 1724" version="1.1" xmlns="http://www.w3.org/2000/svg" xmlns:xlink="http://www.w3.org/1999/xlink" xml:space="preserve" xmlns:serif="http://www.serif.com/" style="fill-rule:evenodd;clip-rule:evenodd;stroke-linejoin:round;stroke-miterlimit:1.5;"><g id="Rotations-Block"><path id="untere-Linie" serif:id="untere Linie" d="M18.75,1704.34l2758.263,0" style="fill:none;stroke:#c9f2e7;stroke-width:37.5px;"/><g id="Rechteck"><g id="Pfeil"><path d="M250.056,721.803l0,-201.139c0,-198.486 161.146,-359.632 359.632,-359.632l309.125,0l17.263,18.75l-17.263,18.75l-309.125,0c-177.79,0 -322.132,144.343 -322.132,322.132l0,201.139l-37.5,0Zm1609.63,-560.772l326.388,0c198.486,0 359.632,161.146 359.632,359.632l0,183.876l-18.75,17.263l-18.75,-17.263l-0,-183.876c-0,-177.789 -144.343,-322.132 -322.132,-322.132l-326.388,0l0,-37.5Zm686.02,840.257l0,201.139c0,172.697 -121.991,317.127 -284.427,351.742l-19.307,-15.404l14.754,-21.993c143.853,-32.242 251.481,-160.824 251.481,-314.346l-0,-201.139l37.5,0Zm-1991.915,556.445c-171.98,-26.886 -303.735,-175.831 -303.735,-355.306l0,-183.876l18.75,-17.263l18.75,17.263l0,183.876c0,158.727 115.049,290.795 266.235,317.291l0,38.015Z" style="fill:#c9f2e7;"/><g id="Pfeilspitzen"><g id="pfeilspitze"><path d="M896.215,222.913l39.712,-43.132l-39.712,-43.132" style="fill:none;stroke:#c9f2e7;stroke-width:37.5px;stroke-linecap:round;stroke-linejoin:miter;"/></g><g id="pfeilspitze1" serif:id="pfeilspitze"><path d="M312.007,1041.727l-43.132,-39.712l-43.132,39.712" style="fill:none;stroke:#c9f2e7;stroke-width:37.5px;stroke-linecap:round;stroke-linejoin:miter;"/></g><g id="pfeilspitze2" serif:id="pfeilspitze"><path d="M2483.809,681.911l43.132,39.712l43.132,-39.712" style="fill:none;stroke:#c9f2e7;stroke-width:37.5px;stroke-linecap:round;stroke-linejoin:miter;"/></g><g id="pfeilspitze3" serif:id="pfeilspitze"><path d="M2274.439,1490.027l-32.546,48.766l45.917,36.455" style="fill:none;stroke:#c9f2e7;stroke-width:37.5px;stroke-linecap:round;stroke-linejoin:miter;"/></g></g></g><path d="M26.45,928.045l0,-133l83.125,0l0,32.9l-52.675,0l0,18.9l45.5,0l0,28.175l-45.5,0l0,19.6l53.025,0l0,33.425l-83.475,0Z" style="fill:#c9f2e7;fill-rule:nonzero;"/><path d="M128.65,816.92c-4.2,0 -6.3,-2.275 -6.3,-6.825l0,-11.725c0,-4.55 2.333,-6.825 7,-6.825l16.45,0c4.433,0 6.65,2.275 6.65,6.825l0,11.725c0,4.55 -2.217,6.825 -6.65,6.825l-17.15,0Zm-6.3,111.125l0,-102.725l30.275,0l0,102.725l-30.275,0Z" style="fill:#c9f2e7;fill-rule:nonzero;"/><path d="M168.375,928.045l0,-28.7l57.925,0c1.983,0 2.975,-1.05 2.975,-3.15l0,-6.125c0,-1.867 -0.992,-2.8 -2.975,-2.8l-38.325,0c-7.933,0 -13.388,-1.808 -16.363,-5.425c-2.975,-3.617 -4.463,-9.275 -4.463,-16.975l0,-15.575c0,-15.983 7.933,-23.975 23.8,-23.975l66.15,0l0,28.525l-57.4,0c-1.983,0 -2.975,1.05 -2.975,3.15l0,6.125c0,1.867 0.992,2.8 2.975,2.8l38.5,0c14.467,0 21.7,7.35 21.7,22.05l0,15.925c0,16.1 -7.233,24.15 -21.7,24.15l-69.825,0Z" style="fill:#c9f2e7;fill-rule:nonzero;"/><path d="M274.425,928.045l0,-133l30.275,0l0,30.275l38.85,0c15.983,0 23.975,8.05 23.975,24.15l0,55.3c0,15.517 -8.167,23.275 -24.5,23.275l-68.6,0Zm62.825,-67.025c0,-3.5 -1.75,-5.25 -5.25,-5.25l-27.3,0l0,42l27.3,0c3.5,0 5.25,-1.867 5.25,-5.6l0,-31.15Z" style="fill:#c9f2e7;fill-rule:nonzero;"/><path d="M380.475,928.045m62.65,-38.85c0,-2.333 -1.167,-3.5 -3.5,-3.5l-25.55,0c-2.333,0 -3.5,1.167 -3.5,3.5l0,7.175c0,2.333 1.167,3.5 3.5,3.5l25.55,0c2.333,0 3.5,-1.167 3.5,-3.5l0,-7.175Zm-40.25,38.85c-14.933,0 -22.4,-7.758 -22.4,-23.275l0,-15.225c0,-15.867 7.467,-23.8 22.4,-23.8l34.475,0c1.983,0 3.908,0.408 5.775,1.225l0,-7.7c0,-3.5 -1.75,-5.25 -5.25,-5.25l-53.375,0l0,-28.7l64.4,0c16.333,0 24.5,8.05 24.5,24.15l0,54.425c0,16.1 -7.875,24.15 -23.625,24.15l-46.9,0Zm37.275,-111.125c-4.2,0 -6.3,-2.275 -6.3,-6.825l0,-11.725c0,-4.55 2.333,-6.825 7,-6.825l15.575,0c4.317,0 6.475,2.275 6.475,6.825l0,11.725c0,4.55 -2.158,6.825 -6.475,6.825l-16.275,0Zm-42,0c-4.2,0 -6.3,-2.275 -6.3,-6.825l0,-11.725c0,-4.55 2.333,-6.825 7,-6.825l15.575,0c4.433,0 6.65,2.275 6.65,6.825l0,11.725c0,4.55 -2.217,6.825 -6.65,6.825l-16.275,0Z" style="fill:#c9f2e7;fill-rule:nonzero;"/><path d="M488.1,928.045l0,-78.575c0,-8.05 1.925,-14.087 5.775,-18.112c3.85,-4.025 9.975,-6.038 18.375,-6.038l33.95,0l0,30.275l-22.4,0c-3.5,0 -5.25,1.75 -5.25,5.25l0,67.2l-30.45,0Z" style="fill:#c9f2e7;fill-rule:nonzero;"/><path d="M1107.031,246.281l0,-54.6l-40.25,0l0,54.6l-30.1,0l0,-109.725c0,-15.517 8.167,-23.275 24.5,-23.275l51.625,0c16.333,-0 24.5,7.758 24.5,23.275l0,109.725l-30.275,0Zm0,-95.2c0,-3.5 -1.75,-5.25 -5.25,-5.25l-29.75,0c-3.5,0 -5.25,1.75 -5.25,5.25l0,12.6l40.25,0l0,-12.6Z" style="fill:#c9f2e7;fill-rule:nonzero;"/><path d="M1176.331,246.281c-16.333,0 -24.5,-7.758 -24.5,-23.275l0,-55.3c0,-16.1 7.992,-24.15 23.975,-24.15l38.85,0l0,-30.275l30.275,0l0,133l-68.6,0Zm38.325,-72.275l-27.3,0c-3.5,0 -5.25,1.75 -5.25,5.25l0,31.15c0,3.733 1.75,5.6 5.25,5.6l27.3,0l0,-42Z" style="fill:#c9f2e7;fill-rule:nonzero;"/><path d="M1383.181,246.281l0,-54.6l-40.25,0l0,54.6l-30.1,0l0,-109.725c0,-15.517 8.167,-23.275 24.5,-23.275l51.625,0c16.333,-0 24.5,7.758 24.5,23.275l0,109.725l-30.275,0Zm0,-95.2c0,-3.5 -1.75,-5.25 -5.25,-5.25l-29.75,0c-3.5,0 -5.25,1.75 -5.25,5.25l0,12.6l40.25,0l0,-12.6Z" style="fill:#c9f2e7;fill-rule:nonzero;"/><path d="M1429.031,246.281l0,-28.7l57.925,0c1.983,0 2.975,-1.05 2.975,-3.15l0,-6.125c0,-1.867 -0.992,-2.8 -2.975,-2.8l-38.325,0c-7.933,0 -13.388,-1.808 -16.363,-5.425c-2.975,-3.617 -4.462,-9.275 -4.462,-16.975l0,-15.575c0,-15.983 7.933,-23.975 23.8,-23.975l66.15,0l0,28.525l-57.4,0c-1.983,0 -2.975,1.05 -2.975,3.15l0,6.125c0,1.867 0.992,2.8 2.975,2.8l38.5,0c14.467,0 21.7,7.35 21.7,22.05l0,15.925c0,16.1 -7.233,24.15 -21.7,24.15l-69.825,0Z" style="fill:#c9f2e7;fill-rule:nonzero;"/><path d="M1560.106,246.281c-16.683,0 -25.025,-7.525 -25.025,-22.575l0,-108.675l30.275,0l0,29.575l23.8,0l0,27.65l-23.8,0l0,37.8c0,3.967 1.517,5.95 4.55,5.95l19.075,0l0,30.275l-28.875,0Z" style="fill:#c9f2e7;fill-rule:nonzero;"/><path d="M1600.531,246.281l0,-78.575c0,-8.05 1.925,-14.088 5.775,-18.113c3.85,-4.025 9.975,-6.037 18.375,-6.037l33.95,0l0,30.275l-22.4,0c-3.5,0 -5.25,1.75 -5.25,5.25l0,67.2l-30.45,0Z" style="fill:#c9f2e7;fill-rule:nonzero;"/><path d="M1729.156,207.431c0,-2.333 -1.167,-3.5 -3.5,-3.5l-25.55,0c-2.333,0 -3.5,1.167 -3.5,3.5l0,7.175c0,2.333 1.167,3.5 3.5,3.5l25.55,0c2.333,0 3.5,-1.167 3.5,-3.5l0,-7.175Zm-40.25,38.85c-14.933,0 -22.4,-7.758 -22.4,-23.275l0,-15.225c0,-15.867 7.467,-23.8 22.4,-23.8l34.475,0c1.983,0 3.908,0.408 5.775,1.225l0,-7.7c0,-3.5 -1.75,-5.25 -5.25,-5.25l-53.375,0l0,-28.7l64.4,0c16.333,0 24.5,8.05 24.5,24.15l0,54.425c0,16.1 -7.875,24.15 -23.625,24.15l-46.9,0Z" style="fill:#c9f2e7;fill-rule:nonzero;"/><path d="M691.681,1609.809l-34.814,-65.275l0,65.275l-29.669,0l0,-133l29.669,0l0,53.2l31.727,-53.2l34.129,0l-36.358,57.75l42.189,75.25l-36.873,0Z" style="fill:#c9f2e7;fill-rule:nonzero;"/><path d="M742.788,1498.684c-4.116,0 -6.174,-2.275 -6.174,-6.825l0,-11.725c0,-4.55 2.287,-6.825 6.86,-6.825l16.121,0c4.345,0 6.517,2.275 6.517,6.825l0,11.725c0,4.55 -2.172,6.825 -6.517,6.825l-16.807,0Zm-6.174,111.125l0,-102.725l29.669,0l0,102.725l-29.669,0Z" style="fill:#c9f2e7;fill-rule:nonzero;"/><path d="M842.258,1538.759c0,-2.333 -1.143,-3.5 -3.43,-3.5l-25.039,0c-2.287,0 -3.43,1.167 -3.43,3.5l0,7.175c0,2.333 1.143,3.5 3.43,3.5l25.039,0c2.287,0 3.43,-1.167 3.43,-3.5l0,-7.175Zm-37.558,71.05c-16.007,0 -24.01,-8.05 -24.01,-24.15l0,-54.425c0,-16.1 7.717,-24.15 23.153,-24.15l45.962,0c14.635,0 21.952,7.817 21.952,23.45l0,15.05c0,15.867 -7.317,23.8 -21.952,23.8l-34.129,0c-2.058,0 -3.83,-0.408 -5.317,-1.225l0,7.7c0,3.5 1.715,5.25 5.145,5.25l51.965,0l0,28.7l-62.769,0Z" style="fill:#c9f2e7;fill-rule:nonzero;"/><rect x="885.476" y="1476.809" width="29.669" height="133" style="fill:#c9f2e7;fill-rule:nonzero;"/><path d="M1036.225,1609.809l0,-67.025c0,-3.5 -1.715,-5.25 -5.145,-5.25l-18.865,0l0,72.275l-29.327,0l0,-72.275l-18.522,0c-3.43,0 -5.145,1.75 -5.145,5.25l0,67.025l-29.327,0l0,-78.575c0,-16.1 7.832,-24.15 23.495,-24.15l88.494,0c15.549,0 23.324,8.108 23.324,24.325l0,78.4l-28.983,0Z" style="fill:#c9f2e7;fill-rule:nonzero;"/><path d="M1141.011,1538.759c0,-2.333 -1.143,-3.5 -3.43,-3.5l-25.039,0c-2.287,0 -3.43,1.167 -3.43,3.5l0,7.175c0,2.333 1.143,3.5 3.43,3.5l25.039,0c2.287,0 3.43,-1.167 3.43,-3.5l0,-7.175Zm-37.559,71.05c-16.007,0 -24.01,-8.05 -24.01,-24.15l0,-54.425c0,-16.1 7.718,-24.15 23.153,-24.15l45.962,0c14.635,0 21.952,7.817 21.952,23.45l0,15.05c0,15.867 -7.317,23.8 -21.952,23.8l-34.129,0c-2.058,0 -3.83,-0.408 -5.316,-1.225l0,7.7c0,3.5 1.715,5.25 5.145,5.25l51.965,0l0,28.7l-62.769,0Z" style="fill:#c9f2e7;fill-rule:nonzero;"/><path d="M1195.65,1642.359l15.092,-39.025l-37.044,-96.25l32.071,0l20.58,61.425l20.58,-61.425l32.242,0l-51.45,135.275l-32.071,0Z" style="fill:#c9f2e7;fill-rule:nonzero;"/><path d="M1344.785,1538.759c0,-2.333 -1.143,-3.5 -3.43,-3.5l-25.039,0c-2.287,0 -3.43,1.167 -3.43,3.5l0,7.175c0,2.333 1.143,3.5 3.43,3.5l25.039,0c2.287,0 3.43,-1.167 3.43,-3.5l0,-7.175Zm-37.558,71.05c-16.007,0 -24.01,-8.05 -24.01,-24.15l0,-54.425c0,-16.1 7.718,-24.15 23.153,-24.15l45.962,0c14.635,0 21.952,7.817 21.952,23.45l0,15.05c0,15.867 -7.317,23.8 -21.952,23.8l-34.129,0c-2.058,0 -3.83,-0.408 -5.316,-1.225l0,7.7c0,3.5 1.715,5.25 5.145,5.25l51.965,0l0,28.7l-62.769,0Z" style="fill:#c9f2e7;fill-rule:nonzero;"/><path d="M1388.003,1609.809l0,-78.575c0,-8.05 1.886,-14.087 5.659,-18.112c3.773,-4.025 9.775,-6.037 18.007,-6.037l33.271,0l0,30.275l-21.952,0c-3.43,0 -5.145,1.75 -5.145,5.25l0,67.2l-29.841,0Z" style="fill:#c9f2e7;fill-rule:nonzero;"/><path d="M1454.716,1609.809l0,-28.7l56.767,0c1.944,0 2.915,-1.05 2.915,-3.15l0,-6.125c0,-1.867 -0.972,-2.8 -2.915,-2.8l-37.559,0c-7.775,0 -13.12,-1.808 -16.035,-5.425c-2.916,-3.617 -4.373,-9.275 -4.373,-16.975l0,-15.575c0,-15.983 7.775,-23.975 23.324,-23.975l64.827,0l0,28.525l-56.252,0c-1.944,0 -2.916,1.05 -2.916,3.15l0,6.125c0,1.867 0.972,2.8 2.916,2.8l37.73,0c14.177,0 21.266,7.35 21.266,22.05l0,15.925c0,16.1 -7.089,24.15 -21.266,24.15l-68.429,0Z" style="fill:#c9f2e7;fill-rule:nonzero;"/><path d="M1635.649,1609.809l0,-99.575l-29.841,0l0,-33.425l89.18,0l0,33.425l-29.841,0l0,99.575l-29.498,0Z" style="fill:#c9f2e7;fill-rule:nonzero;"/><path d="M1700.028,1609.809l0,-78.575c0,-8.05 1.886,-14.087 5.659,-18.112c3.773,-4.025 9.775,-6.037 18.007,-6.037l33.271,0l0,30.275l-21.952,0c-3.43,0 -5.145,1.75 -5.145,5.25l0,67.2l-29.841,0Z" style="fill:#c9f2e7;fill-rule:nonzero;"/><path d="M1827.281,1538.759c0,-2.333 -1.143,-3.5 -3.43,-3.5l-25.039,0c-2.287,0 -3.43,1.167 -3.43,3.5l0,7.175c0,2.333 1.143,3.5 3.43,3.5l25.039,0c2.287,0 3.43,-1.167 3.43,-3.5l0,-7.175Zm-37.558,71.05c-16.007,0 -24.01,-8.05 -24.01,-24.15l0,-54.425c0,-16.1 7.718,-24.15 23.153,-24.15l45.962,0c14.635,0 21.952,7.817 21.952,23.45l0,15.05c0,15.867 -7.317,23.8 -21.952,23.8l-34.129,0c-2.058,0 -3.83,-0.408 -5.316,-1.225l0,7.7c0,3.5 1.715,5.25 5.145,5.25l51.965,0l0,28.7l-62.769,0Z" style="fill:#c9f2e7;fill-rule:nonzero;"/><path d="M1870.842,1609.809l0,-28.7l56.767,0c1.944,0 2.915,-1.05 2.915,-3.15l0,-6.125c0,-1.867 -0.972,-2.8 -2.915,-2.8l-37.559,0c-7.775,0 -13.12,-1.808 -16.035,-5.425c-2.916,-3.617 -4.373,-9.275 -4.373,-16.975l0,-15.575c0,-15.983 7.775,-23.975 23.324,-23.975l64.827,0l0,28.525l-56.252,0c-1.944,0 -2.916,1.05 -2.916,3.15l0,6.125c0,1.867 0.972,2.8 2.916,2.8l37.73,0c14.177,0 21.266,7.35 21.266,22.05l0,15.925c0,16.1 -7.089,24.15 -21.266,24.15l-68.429,0Z" style="fill:#c9f2e7;fill-rule:nonzero;"/><path d="M2035.653,1538.759c0,-2.333 -1.143,-3.5 -3.43,-3.5l-25.039,0c-2.287,0 -3.43,1.167 -3.43,3.5l0,7.175c0,2.333 1.143,3.5 3.43,3.5l25.039,0c2.287,0 3.43,-1.167 3.43,-3.5l0,-7.175Zm-37.558,71.05c-16.007,0 -24.01,-8.05 -24.01,-24.15l0,-54.425c0,-16.1 7.718,-24.15 23.153,-24.15l45.962,0c14.635,0 21.952,7.817 21.952,23.45l0,15.05c0,15.867 -7.317,23.8 -21.952,23.8l-34.129,0c-2.058,0 -3.83,-0.408 -5.316,-1.225l0,7.7c0,3.5 1.715,5.25 5.145,5.25l51.964,0l0,28.7l-62.769,0Z" style="fill:#c9f2e7;fill-rule:nonzero;"/><path d="M2139.411,1609.809l0,-67.025c0,-3.5 -1.715,-5.25 -5.145,-5.25l-20.923,0c-3.43,0 -5.145,1.75 -5.145,5.25l0,67.025l-29.669,0l0,-78.575c0,-16.1 7.832,-24.15 23.495,-24.15l43.39,0c15.549,0 23.324,8.108 23.324,24.325l0,78.4l-29.326,0Z" style="fill:#c9f2e7;fill-rule:nonzero;"/><path d="M2319.738,928.045l0,-33.425l34.65,0c3.5,0 5.25,-1.75 5.25,-5.25l0,-94.325l30.275,0l0,109.725c0,15.517 -7.992,23.275 -23.975,23.275l-46.2,0Z" style="fill:#c9f2e7;fill-rule:nonzero;"/><path d="M2467.613,861.02c0,-3.5 -1.75,-5.25 -5.25,-5.25l-22.225,0c-3.5,0 -5.25,1.75 -5.25,5.25l0,31.15c0,3.733 1.75,5.6 5.25,5.6l22.225,0c3.5,0 5.25,-1.75 5.25,-5.25l0,-31.5Zm-38.5,67.025c-16.333,0 -24.5,-7.758 -24.5,-23.275l0,-55.3c0,-16.1 7.992,-24.15 23.975,-24.15l45.15,0c15.867,0 23.8,8.108 23.8,24.325l0,54.425c0,15.983 -7.817,23.975 -23.45,23.975l-44.975,0Z" style="fill:#c9f2e7;fill-rule:nonzero;"/><path d="M2569.288,928.045l-26.775,-49.175l0,49.175l-30.275,0l0,-133l30.275,0l0,69.3l24.675,-39.025l32.9,0l-28,43.4l34.3,59.325l-37.1,0Z" style="fill:#c9f2e7;fill-rule:nonzero;"/><path d="M2672.888,856.995c0,-2.333 -1.167,-3.5 -3.5,-3.5l-25.55,0c-2.333,0 -3.5,1.167 -3.5,3.5l0,7.175c0,2.333 1.167,3.5 3.5,3.5l25.55,0c2.333,0 3.5,-1.167 3.5,-3.5l0,-7.175Zm-38.325,71.05c-16.333,0 -24.5,-8.05 -24.5,-24.15l0,-54.425c0,-16.1 7.875,-24.15 23.625,-24.15l46.9,0c14.933,0 22.4,7.817 22.4,23.45l0,15.05c0,15.867 -7.467,23.8 -22.4,23.8l-34.825,0c-2.1,0 -3.908,-0.408 -5.425,-1.225l0,7.7c0,3.5 1.75,5.25 5.25,5.25l53.025,0l0,28.7l-64.05,0Z" style="fill:#c9f2e7;fill-rule:nonzero;"/><path d="M2716.988,928.045l0,-78.575c0,-8.05 1.925,-14.087 5.775,-18.112c3.85,-4.025 9.975,-6.038 18.375,-6.038l33.95,0l0,30.275l-22.4,0c-3.5,0 -5.25,1.75 -5.25,5.25l0,67.2l-30.45,0Z" style="fill:#c9f2e7;fill-rule:nonzero;"/></g><path id="obere-Linie" serif:id="obere Linie" d="M18.75,18.75l2758.263,0" style="fill:none;stroke:#c9f2e7;stroke-width:37.5px;"/></g></svg>