<?xml version="1.0" encoding="UTF-8" standalone="no"?><!DOCTYPE svg PUBLIC "-//W3C//DTD SVG 1.1//EN" "http://www.w3.org/Graphics/SVG/1.1/DTD/svg11.dtd"><svg width="100%" height="100%" viewBox="0 0 2759 644" version="1.1" xmlns="http://www.w3.org/2000/svg" xmlns:xlink="http://www.w3.org/1999/xlink" xml:space="preserve" xmlns:serif="http://www.serif.com/" style="fill-rule:evenodd;clip-rule:evenodd;stroke-linejoin:round;stroke-miterlimit:2;"><g id="Text"><g id="Überschrift"><g id="lines"><rect x="0.794" y="303.088" width="2758.064" height="37.5" style="fill:#38d7b6;"/><rect x="0" y="606.457" width="2758.064" height="37.5" style="fill:#38d7b6;"/><rect x="0.794" y="0" width="2758.064" height="37.5" style="fill:#38d7b6;"/></g><g transform="matrix(1,0,0,1,0,359.337656)"><g transform="matrix(483,0,0,300,7.894316,228)"><path d="M0.08,-0l0,-0.539c0,-0.02 -0.01,-0.03 -0.03,-0.03l-0.038,0l0,-0.191l0.104,0c0.092,-0 0.138,0.046 0.138,0.138l0,0.622l-0.174,-0Z" style="fill:#38d7b6;fill-rule:nonzero;"/></g><g transform="matrix(483,0,0,300,175.495316,228)"><path d="M0.04,-0l0,-0.333c0,-0.089 0.044,-0.134 0.133,-0.134l0.203,0c0.027,0 0.04,-0.013 0.04,-0.04l0,-0.022c0,-0.027 -0.013,-0.04 -0.04,-0.04l-0.323,0l0,-0.191l0.4,0c0.091,-0 0.136,0.048 0.136,0.145l0,0.188c0,0.089 -0.047,0.133 -0.14,0.133l-0.199,0c-0.026,0 -0.039,0.013 -0.039,0.04l0,0.063l0.378,0l0,0.191l-0.549,-0Z" style="fill:#38d7b6;fill-rule:nonzero;"/></g><g transform="matrix(483,0,0,300,503.452316,228)"><path d="M0.08,-0c-0.024,-0 -0.036,-0.013 -0.036,-0.039l0,-0.112c0,-0.027 0.013,-0.04 0.04,-0.04l0.094,0c0.025,0 0.038,0.013 0.038,0.04l0,0.112c0,0.026 -0.013,0.039 -0.038,0.039l-0.098,-0Z" style="fill:#38d7b6;fill-rule:nonzero;"/></g><g transform="matrix(483,0,0,300,653.182316,228)"><path d="M0.417,-0.539c0,-0.02 -0.01,-0.03 -0.03,-0.03l-0.144,0c-0.02,0 -0.03,0.01 -0.03,0.03l0,0.318c0,0.02 0.01,0.03 0.03,0.03l0.144,0c0.02,0 0.03,-0.01 0.03,-0.03l0,-0.318Zm-0.24,0.539c-0.091,-0 -0.137,-0.044 -0.137,-0.133l-0,-0.488c0,-0.093 0.046,-0.139 0.137,-0.139l0.275,0c0.091,-0 0.137,0.046 0.137,0.139l0,0.488c0,0.089 -0.046,0.133 -0.137,0.133l-0.275,-0Z" style="fill:#38d7b6;fill-rule:nonzero;"/></g><g transform="matrix(483,0,0,300,981.139316,228)"><path d="M0.42,-0.271c0,-0.02 -0.01,-0.03 -0.03,-0.03l-0.144,0c-0.02,0 -0.03,0.01 -0.03,0.03l0,0.053c0,0.02 0.01,0.03 0.03,0.03l0.144,0c0.02,-0 0.03,-0.01 0.03,-0.03l0,-0.053Zm-0.243,0.271c-0.091,-0 -0.137,-0.047 -0.137,-0.142l-0,-0.473c0,-0.097 0.045,-0.145 0.134,-0.145l0.399,0l0,0.191l-0.318,0c-0.026,0 -0.039,0.014 -0.039,0.043l0,0.097c0.011,-0.018 0.027,-0.027 0.049,-0.027l0.207,0c0.08,0 0.12,0.044 0.12,0.131l0,0.191c0,0.089 -0.044,0.134 -0.133,0.134l-0.282,-0Z" style="fill:#38d7b6;fill-rule:nonzero;"/></g><g transform="matrix(483,0,0,300,1311.028316,228)"><path d="M0.08,-0c-0.024,-0 -0.036,-0.013 -0.036,-0.039l0,-0.112c0,-0.027 0.013,-0.04 0.04,-0.04l0.094,0c0.025,0 0.038,0.013 0.038,0.04l0,0.112c0,0.026 -0.013,0.039 -0.038,0.039l-0.098,-0Z" style="fill:#38d7b6;fill-rule:nonzero;"/></g><g transform="matrix(483,0,0,300,1460.758316,228)"><path d="M0.04,-0l0,-0.333c0,-0.089 0.044,-0.134 0.133,-0.134l0.203,0c0.027,0 0.04,-0.013 0.04,-0.04l0,-0.022c0,-0.027 -0.013,-0.04 -0.04,-0.04l-0.323,0l0,-0.191l0.4,0c0.091,-0 0.136,0.048 0.136,0.145l0,0.188c0,0.089 -0.047,0.133 -0.14,0.133l-0.199,0c-0.026,0 -0.039,0.013 -0.039,0.04l0,0.063l0.378,0l0,0.191l-0.549,-0Z" style="fill:#38d7b6;fill-rule:nonzero;"/></g><g transform="matrix(483,0,0,300,1788.715316,228)"><path d="M0.417,-0.539c0,-0.02 -0.01,-0.03 -0.03,-0.03l-0.144,0c-0.02,0 -0.03,0.01 -0.03,0.03l0,0.318c0,0.02 0.01,0.03 0.03,0.03l0.144,0c0.02,0 0.03,-0.01 0.03,-0.03l0,-0.318Zm-0.24,0.539c-0.091,-0 -0.137,-0.044 -0.137,-0.133l-0,-0.488c0,-0.093 0.046,-0.139 0.137,-0.139l0.275,0c0.091,-0 0.137,0.046 0.137,0.139l0,0.488c0,0.089 -0.046,0.133 -0.137,0.133l-0.275,-0Z" style="fill:#38d7b6;fill-rule:nonzero;"/></g><g transform="matrix(483,0,0,300,2116.672316,228)"><path d="M0.04,-0l0,-0.333c0,-0.089 0.044,-0.134 0.133,-0.134l0.203,0c0.027,0 0.04,-0.013 0.04,-0.04l0,-0.022c0,-0.027 -0.013,-0.04 -0.04,-0.04l-0.323,0l0,-0.191l0.4,0c0.091,-0 0.136,0.048 0.136,0.145l0,0.188c0,0.089 -0.047,0.133 -0.14,0.133l-0.199,0c-0.026,0 -0.039,0.013 -0.039,0.04l0,0.063l0.378,0l0,0.191l-0.549,-0Z" style="fill:#38d7b6;fill-rule:nonzero;"/></g><g transform="matrix(483,0,0,300,2444.629316,228)"><path d="M0.42,-0.271c0,-0.02 -0.01,-0.03 -0.03,-0.03l-0.144,0c-0.02,0 -0.03,0.01 -0.03,0.03l0,0.053c0,0.02 0.01,0.03 0.03,0.03l0.144,0c0.02,-0 0.03,-0.01 0.03,-0.03l0,-0.053Zm-0.243,0.271c-0.091,-0 -0.137,-0.047 -0.137,-0.142l-0,-0.473c0,-0.097 0.045,-0.145 0.134,-0.145l0.399,0l0,0.191l-0.318,0c-0.026,0 -0.039,0.014 -0.039,0.043l0,0.097c0.011,-0.018 0.027,-0.027 0.049,-0.027l0.207,0c0.08,0 0.12,0.044 0.12,0.131l0,0.191c0,0.089 -0.044,0.134 -0.133,0.134l-0.282,-0Z" style="fill:#38d7b6;fill-rule:nonzero;"/></g></g><g transform="matrix(1,0,0,1,-362.141988,-373.509703)"><g transform="matrix(429,0,0,300,362.737575,657.759703)"><path d="M0.42,-0l-0.203,-0.373l0,0.373l-0.173,-0l-0,-0.76l0.173,0l0,0.304l0.185,-0.304l0.199,0l-0.212,0.33l0.246,0.43l-0.215,-0Z" style="fill:#38d7b6;fill-rule:nonzero;"/></g><g transform="matrix(429,0,0,300,637.151332,657.759703)"><path d="M0.48,-0l-0.263,-0.402l0,0.402l-0.173,-0l-0,-0.76l0.166,0l0.242,0.397l0,-0.397l0.173,0l0,0.76l-0.145,-0Z" style="fill:#38d7b6;fill-rule:nonzero;"/></g><g transform="matrix(429,0,0,300,924.86409,657.759703)"><path d="M0.044,-0l0,-0.76l0.475,0l0,0.188l-0.301,0l0,0.108l0.26,0l0,0.161l-0.26,0l-0,0.112l0.303,0l0,0.191l-0.477,-0Z" style="fill:#38d7b6;fill-rule:nonzero;"/></g><g transform="matrix(429,0,0,300,1160.667847,657.759703)"><rect x="0.044" y="-0.76" width="0.173" height="0.76" style="fill:#38d7b6;fill-rule:nonzero;"/></g><g transform="matrix(429,0,0,300,1273.348604,657.759703)"><path d="M0.421,-0.539c0,-0.02 -0.01,-0.03 -0.03,-0.03l-0.174,0l0,0.113l0.174,0c0.02,0 0.03,-0.01 0.03,-0.03l0,-0.053Zm-0.377,0.539l0,-0.76l0.412,0c0.091,-0 0.137,0.047 0.137,0.142l0,0.2c0,0.087 -0.046,0.131 -0.137,0.131l-0.239,0l0,0.287l-0.173,-0Z" style="fill:#38d7b6;fill-rule:nonzero;"/></g><g transform="matrix(429,0,0,300,1538.753362,657.759703)"><path d="M0.044,-0l0,-0.76l0.475,0l0,0.188l-0.301,0l0,0.108l0.26,0l0,0.161l-0.26,0l-0,0.112l0.303,0l0,0.191l-0.477,-0Z" style="fill:#38d7b6;fill-rule:nonzero;"/></g><g transform="matrix(429,0,0,300,1774.557119,657.759703)"><path d="M0.48,-0l-0.263,-0.402l0,0.402l-0.173,-0l-0,-0.76l0.166,0l0.242,0.397l0,-0.397l0.173,0l0,0.76l-0.145,-0Z" style="fill:#38d7b6;fill-rule:nonzero;"/></g><g transform="matrix(429,0,0,300,2062.269877,657.759703)"><path d="M0.191,-0l0,-0.569l-0.174,0l-0,-0.191l0.52,0l0,0.191l-0.174,0l0,0.569l-0.172,-0Z" style="fill:#38d7b6;fill-rule:nonzero;"/></g><g transform="matrix(429,0,0,300,2300.218634,657.759703)"><path d="M0.417,-0.539c0,-0.02 -0.01,-0.03 -0.03,-0.03l-0.144,0c-0.02,0 -0.03,0.01 -0.03,0.03l0,0.318c0,0.02 0.01,0.03 0.03,0.03l0.144,0c0.02,0 0.03,-0.01 0.03,-0.03l0,-0.318Zm-0.24,0.539c-0.091,-0 -0.137,-0.044 -0.137,-0.133l-0,-0.488c0,-0.093 0.046,-0.139 0.137,-0.139l0.275,0c0.091,-0 0.137,0.046 0.137,0.139l0,0.488c0,0.089 -0.046,0.133 -0.137,0.133l-0.275,-0Z" style="fill:#38d7b6;fill-rule:nonzero;"/></g><g transform="matrix(429,0,0,300,2570.771392,657.759703)"><path d="M0.182,-0c-0.093,-0 -0.14,-0.044 -0.14,-0.133l-0,-0.627l0.173,0l0,0.539c0,0.02 0.01,0.03 0.03,0.03l0.157,0c0.02,0 0.03,-0.01 0.03,-0.03l0,-0.539l0.172,0l0,0.627c0,0.089 -0.047,0.133 -0.14,0.133l-0.282,-0Z" style="fill:#38d7b6;fill-rule:nonzero;"/></g><g transform="matrix(429,0,0,300,2849.046149,657.759703)"><path d="M0.421,-0.544c0,-0.02 -0.01,-0.03 -0.03,-0.03l-0.174,0l0,0.113l0.174,0c0.02,0 0.03,-0.01 0.03,-0.03l0,-0.053Zm0.005,0.544c-0.001,-0.005 -0.003,-0.01 -0.004,-0.017c-0.001,-0.006 -0.002,-0.014 -0.002,-0.024l0,-0.23c0,-0.02 -0.01,-0.03 -0.03,-0.03l-0.174,0l0,0.3l-0.173,-0l-0,-0.76l0.409,0c0.092,-0 0.138,0.047 0.138,0.142l0,0.12c0,0.069 -0.028,0.108 -0.084,0.118c0.03,0.007 0.052,0.019 0.066,0.037c0.014,0.018 0.02,0.042 0.02,0.072l0,0.225c0,0.013 0.001,0.023 0.002,0.029c0.001,0.006 0.002,0.012 0.003,0.017l-0.172,-0Z" style="fill:#38d7b6;fill-rule:nonzero;"/></g></g></g></g><g id="logo---qr-code" serif:id="logo + qr-code"></g></svg>